<?xml version="1.0" encoding="utf-8"?>
<svg version="1.1" id="Layer_1" xmlns="http://www.w3.org/2000/svg" xmlns:xlink="http://www.w3.org/1999/xlink" x="0px" y="0px"
	 viewBox="0 0 1173.1348 1756.4171" enable-background="new 0 0 1173.1348 1756.4171" xml:space="preserve">
<g>
	<path fill="none" stroke="#000000" stroke-width="34.086" stroke-linecap="round" d="M632.8294,742.1268
		c24.1893-79.7661,64.0775-522.2515,123.2784-607.8705c71.6548-103.6306,214.3983-56.3688,241.4438,37.4948
		c12.15,42.1674,5.2626,80.9774-9.0895,123.8464c-33.5292,100.1494-100.5543,424.3732-100.5543,424.3732
		C800.739,730.0037,716.1202,735.8037,632.8294,742.1268z"/>
	<path fill="none" stroke="#000000" stroke-width="34.086" stroke-linecap="round" d="M632.8294,742.1268
		C520.345,522.2708,356.5798,145.5492,301.6252,114.9407C211.1268,64.5352,79.366,126.3823,89.7226,234.8105
		C106.9948,415.6407,451.006,863.4573,476.601,873.9268C488.5312,773.9405,543.6372,749.5121,632.8294,742.1268z"/>
	<path fill="none" stroke="#000000" stroke-width="34.086" stroke-linecap="round" d="M598.4592,1161.1029
		c24.1443-59.9348-28.5555-183.4111-172.9875-287.1761c-97.6184-70.1325-197.7511-91.6328-249.6814-11.9302
		c-64.9603,99.701,4.3605,183.3621,126.9711,250.5336C433.7978,1184.3176,562.9669,1249.2072,598.4592,1161.1029z"/>
	<path fill="none" stroke="#000000" stroke-width="34.086" stroke-linecap="round" d="M887.9078,719.9707
		c39.103,13.3119,69.8334,15.5063,97.286,33.4236c5.3921,3.5192,10.481,7.4882,15.0917,11.9828
		c76.4959,74.5692,110.5611,217.1256,114.8636,407.3719c2.8407,161.9094-61.7219,317.9913-245.4206,417.272
		c-234.8148,126.9064-373.6022,103.6989-569.8075,13.3503c-138.111-81.7853-232.1309-199.3412-242.0121-352.7921
		c2.2724-99.9862,39.1992-172.1353,120.4379-194.2914c35.2224-2.2723,231.7861,118.1655,315.2974,157.3646
		c22.8907,10.7446,51.7977,57.4618,63.0594,80.1027c6.8173,13.7054-8.3085,64.8347-26.7008,74.4215
		c-118.5364,61.7856-249.9655,1.1362-360.1776-143.1621"/>
	<path fill="none" stroke="#000000" stroke-width="34.086" stroke-linecap="round" d="M864.0475,980.162
		c-130.7108,36.8929-241.7915,32.8113-324.9553-29.5413c-26.5693-17.7488-48.4759-41.8481-62.4913-76.6939"/>
	<path fill="none" stroke="#000000" stroke-width="34.086" stroke-linecap="round" d="M582.8364,1424.4188
		c-22.2358-82.5625-21.1636-159.6359,11.1898-229.3422c17.175-37.0042,42.6968-69.5341,73.8156-95.9142
		c59.8315-50.7206,125.202-90.4495,196.2058-119.0005"/>
</g>
</svg>
